#!OML:ASF G:\JayActor3\Patient Classification 1\Patient 1\Session 6\male.ASF
:FULLY-SPECIFIED
:DEGREES
1157
root 2.63319 16.2276 -19.2567 173.595 -21.1932 -179.87
lowerback -2.77415 -0.463879 1.9398
upperback 6.78513 -1.31855 2.34073
thorax 8.71303 -0.767534 1.22567
lowerneck 5.45209 8.37345 9.64905
upperneck -18.4197 9.65906 -13.6547
head -5.15161 4.76514 -6.3843
rclavicle -1.82882e-014 -2.94201e-014
rhumerus 27.966 24.2083 -22.9713
rradius 132.804
rwrist -73.3934
rhand -29.834 -35.4894
rfingers 7.12502
rthumb -3.15712 -65.4458
lclavicle -1.82882e-014 -2.94201e-014
lhumerus -27.0651 -3.43276 85.1808
lradius 31.7823
lwrist 30.4828
lhand -13.3444 10.8453
lfingers 7.12502
lthumb 12.7612 40.4353
rfemur -19.8952 4.00626 11.115
rtibia 46.0583
rfoot -12.1343 -8.8064
rtoes -7.25282
lfemur 5.87724 9.86683 -24.4317
ltibia 19.7731
lfoot -23.6243 16.327
ltoes 8.09623
1158
root 2.65067 16.2316 -19.2397 173.667 -21.435 -179.783
lowerback -2.65339 -0.395347 1.90066
upperback 6.87186 -1.22129 2.26203
thorax 8.73407 -0.721492 1.17548
lowerneck 5.44387 8.22267 9.6272
upperneck -18.1862 9.50876 -13.5168
head -5.10819 4.69555 -6.32398
rclavicle 4.64162e-014 8.74653e-015
rhumerus 27.7814 24.454 -23.2312
rradius 132.608
rwrist -73.1252
rhand -29.8605 -35.4659
rfingers 7.12502
rthumb -3.18272 -65.4219
lclavicle 4.64162e-014 8.74653e-015
lhumerus -27.2215 -3.3326 84.8907
lradius 31.9348
lwrist 30.8184
lhand -13.5901 10.8406
lfingers 7.12502
lthumb 12.5243 40.4452
rfemur -19.9517 3.97547 11.2387
rtibia 46.0024
rfoot -12.5903 -8.87267
rtoes -8.25018
lfemur 5.60002 9.79154 -24.3195
ltibia 19.9157
lfoot -23.5743 16.1005
ltoes 8.18674
1159
root 2.66875 16.235 -19.2238 173.748 -21.6671 -179.707
lowerback -2.54695 -0.317616 1.86121
upperback 6.9469 -1.10995 2.17894
thorax 8.75069 -0.667755 1.12196
lowerneck 5.41731 8.04935 9.58593
upperneck -17.8654 9.33586 -13.3645
head -5.03956 4.61752 -6.25059
rclavicle 1.27222e-014 3.97569e-015
rhumerus 27.5784 24.7213 -23.5034
rradius 132.392
rwrist -72.8684
rhand -29.9191 -35.4509
rfingers 7.12502
rthumb -3.23928 -65.4061
lclavicle 1.27222e-014 3.97569e-015
lhumerus -27.3714 -3.24265 84.5929
lradius 32.059
lwrist 31.093
lhand -13.7534 10.8324
lfingers 7.12502
lthumb 12.3669 40.4466
rfemur -20.008 3.93984 11.3664
rtibia 45.9599
rfoot -13.1517 -8.78431
rtoes -9.36728
lfemur 5.31008 9.71417 -24.2182
ltibia 20.076
lfoot -23.5382 15.876
ltoes 8.27183
1160
root 2.68721 16.2379 -19.2091 173.829 -21.892 -179.631
lowerback -2.45164 -0.234161 1.8288
upperback 7.01395 -0.991125 2.09877
thorax 8.76529 -0.609698 1.06807
lowerneck 5.36081 7.85989 9.51252
upperneck -17.4512 9.14777 -13.1898
head -4.94202 4.5343 -6.15903
rclavicle 6.0033e-014 -3.4191e-014
rhumerus 27.3721 25.003 -23.7748
rradius 132.157
rwrist -72.6315
rhand -29.9989 -35.4548
rfingers 7.12502
rthumb -3.31639 -65.4088
lclavicle 6.0033e-014 -3.4191e-014
lhumerus -27.5085 -3.15112 84.2919
lradius 32.1444
lwrist 31.2833
lhand -13.8263 10.8041
lfingers 7.12502
lthumb 12.2966 40.4226
rfemur -20.054 3.89182 11.5106
rtibia 45.9319
rfoot -13.7783 -8.52482
rtoes -10.4946
lfemur 5.01858 9.62923 -24.1159
ltibia 20.2462
lfoot -23.5102 15.6605
ltoes 8.35243
1161
root 2.70583 16.2404 -19.1956 173.905 -22.1165 -179.551
lowerback -2.36346 -0.1474 1.80511
upperback 7.0731 -0.868462 2.02459
thorax 8.77572 -0.549208 1.01578
lowerneck 5.28489 7.65003 9.38584
upperneck -16.9591 8.9371 -12.9771
head -4.82488 4.442 -6.04268
rclavicle -3.75703e-014 1.43125e-014
rhumerus 27.1629 25.2954 -24.0382
rradius 131.905
rwrist -72.4257
rhand -30.0566 -35.4741
rfingers 7.12502
rthumb -3.3721 -65.4271
lclavicle -3.75703e-014 1.43125e-014
lhumerus -27.6298 -3.0457 83.9913
lradius 32.1853
lwrist 31.3765
lhand -13.7866 10.7707
lfingers 7.12502
lthumb 12.3348 40.3868
rfemur -20.0821 3.82234 11.6712
rtibia 45.919
rfoot -14.4118 -8.12025
rtoes -11.5394
lfemur 4.73228 9.53373 -24.0122
ltibia 20.422
lfoot -23.4954 15.4466
ltoes 8.48668
1162
root 2.72444 16.2429 -19.1833 173.974 -22.3447 -179.483
lowerback -2.27941 -0.0596738 1.77562
upperback 7.12571 -0.743809 1.95382
thorax 8.78176 -0.488074 0.970332
lowerneck 5.19746 7.41974 9.20658
upperneck -16.3968 8.70376 -12.7248
head -4.69151 4.34005 -5.9022
rclavicle -5.725e-014 5.56597e-015
rhumerus 26.9532 25.6025 -24.2912
rradius 131.637
rwrist -72.2502
rhand -30.0884 -35.5102
rfingers 7.12502
rthumb -3.40282 -65.4628
lclavicle -5.725e-014 5.56597e-015
lhumerus -27.7396 -2.93189 83.6996
lradius 32.1865
lwrist 31.3803
lhand -13.7026 10.7419
lfingers 7.12502
lthumb 12.4159 40.3532
rfemur -20.0868 3.72022 11.833
rtibia 45.9228
rfoot -14.9958 -7.63077
rtoes -12.4949
lfemur 4.45954 9.42289 -23.922
ltibia 20.5989
lfoot -23.4894 15.2453
ltoes 8.65923
